<svg width="250" height="258" viewBox="0 0 250 258" fill="none" xmlns="http://www.w3.org/2000/svg">
<path fill-rule="evenodd" clip-rule="evenodd" d="M112.787 0.323717C57.3186 6.27235 12.0915 49.0256 2.16736 104.894C-5.79244 149.702 8.40798 193.526 40.8877 224.39C80.288 261.83 139.775 268.757 186.146 241.305C219.952 221.291 242.605 186.911 248.264 147.027C248.683 144.078 249.025 140.63 249.025 139.364C249.025 138.098 249.244 136.922 249.513 136.75C249.805 136.564 250 133.204 250 128.367C250 123.115 249.83 120.405 249.513 120.607C249.214 120.798 249.025 120.004 249.025 118.558C249.025 115.608 247.813 106.992 246.511 100.681C242.867 83.027 232.791 61.5873 221.498 47.4603C201.08 21.9183 174.121 6.12706 142.277 1.05721C136.15 0.0815742 119.017 -0.344698 112.787 0.323717ZM149.249 68.4061C147.19 69.4902 146.136 70.9118 142.778 77.1303C141.71 79.1093 140.969 79.9735 140.5 79.7873C140.118 79.6355 137.784 79.3651 135.313 79.1855C125.234 78.454 114.624 81.4354 105.719 87.5026C102.059 89.9966 95.8142 96.2404 93.2211 99.9991C90.2282 104.338 86.9327 111.779 85.6449 117.107C84.0924 123.526 84.0919 134.316 85.6429 140.786C87.0068 146.474 91.2017 155.414 94.448 159.552L96.9017 162.679L92.7829 170.333C90.5178 174.543 88.4525 178.811 88.1937 179.817C86.9156 184.78 90.4213 189.858 95.4721 190.361C97.2692 190.539 98.3962 190.327 100.049 189.5C102.436 188.303 103.186 187.25 107.876 178.498L110.645 173.33L112.447 174.278C115.564 175.916 121.872 177.733 126.679 178.376C138.577 179.967 151.238 176.477 161.098 168.89C165.966 165.144 168.4 162.342 169.089 159.69C170.382 154.721 167.258 149.826 162.172 148.85C159.573 148.351 157.278 149.329 153.908 152.372C147.696 157.978 141.769 160.593 134.234 161.05C129.5 161.338 124.446 160.509 120.858 158.855L118.867 157.938L133.766 130.192C141.961 114.932 148.831 102.274 149.034 102.063C149.237 101.853 151.107 103.146 153.19 104.938C155.272 106.73 157.741 108.457 158.676 108.776C161.901 109.878 166.216 108.169 168.034 105.07C171.164 99.7333 169.148 95.0529 161.103 88.9812C159.194 87.5394 157.571 86.3231 157.497 86.2772C157.423 86.2313 158.131 84.7881 159.069 83.0694C161.831 78.0131 162.172 75.0191 160.382 71.557C158.494 67.9072 153.099 66.3802 149.249 68.4061ZM125.704 97.4299C115.672 99.6596 106.711 107.924 103.034 118.337C101.233 123.439 100.826 130.864 102.059 136.117C102.881 139.615 104.958 144.839 105.721 145.327C106.034 145.527 132.041 97.6983 132.041 96.9224C132.041 96.4507 129.022 96.6924 125.704 97.4299ZM0.144507 128.931C0.144507 133.509 0.218597 135.382 0.308773 133.093C0.398948 130.804 0.398948 127.058 0.308773 124.769C0.218597 122.481 0.144507 124.353 0.144507 128.931Z" fill="#FFC107"/>
</svg>
