<svg width="640" height="428" viewBox="0 0 640 428" fill="none" xmlns="http://www.w3.org/2000/svg">
<mask id="path-1-outside-1_202_18" maskUnits="userSpaceOnUse" x="16" y="99" width="352" height="237" fill="black">
<rect fill="transparent" x="16" y="99" width="352" height="237"/>
<path d="M42.048 321.56C37.44 320.408 33.6 317.912 30.528 314.072C27.648 310.04 26.208 305.528 26.208 300.536V297.656C26.208 293.816 27.744 290.744 30.816 288.44C34.08 286.136 37.536 285.56 41.184 286.712C55.584 291.128 67.968 293.336 78.336 293.336C108.864 293.336 124.128 279.512 124.128 251.864C124.128 229.016 113.088 217.592 91.008 217.592C85.248 217.592 79.776 218.648 74.592 220.76C60.576 226.52 50.688 229.4 44.928 229.4H42.912C38.496 229.4 34.752 227.768 31.68 224.504C28.608 221.24 27.168 217.4 27.36 212.984L31.68 129.176C32.064 124.568 33.792 120.728 36.864 117.656C40.128 114.392 44.064 112.76 48.672 112.76H138.528C142.944 112.76 146.688 114.392 149.76 117.656C153.024 120.92 154.656 124.76 154.656 129.176C154.656 133.592 153.024 137.432 149.76 140.696C146.688 143.768 142.944 145.304 138.528 145.304H71.424C69.696 145.304 68.832 146.168 68.832 147.896L66.528 193.688C66.528 193.88 66.624 193.976 66.816 193.976H67.104L67.392 193.688C76.992 189.08 87.36 186.776 98.496 186.776C119.232 186.776 135.264 192.44 146.592 203.768C158.112 215.096 163.872 231.128 163.872 251.864C163.872 301.208 135.744 325.88 79.488 325.88C66.624 325.88 54.144 324.44 42.048 321.56ZM306.331 158.552C299.803 147.032 289.819 141.272 276.379 141.272C262.939 141.272 252.955 147.032 246.427 158.552C239.899 170.072 236.635 189.848 236.635 217.88C236.635 245.912 239.899 265.688 246.427 277.208C252.955 288.728 262.939 294.488 276.379 294.488C289.819 294.488 299.803 288.728 306.331 277.208C312.859 265.688 316.123 245.912 316.123 217.88C316.123 189.848 312.859 170.072 306.331 158.552ZM336.859 300.248C323.611 317.336 303.451 325.88 276.379 325.88C249.307 325.88 229.051 317.336 215.611 300.248C202.363 283.16 195.739 255.704 195.739 217.88C195.739 180.056 202.363 152.6 215.611 135.512C229.051 118.424 249.307 109.88 276.379 109.88C303.451 109.88 323.611 118.424 336.859 135.512C350.299 152.6 357.019 180.056 357.019 217.88C357.019 255.704 350.299 283.16 336.859 300.248Z"/>
</mask>
<path d="M42.048 321.56C37.44 320.408 33.6 317.912 30.528 314.072C27.648 310.04 26.208 305.528 26.208 300.536V297.656C26.208 293.816 27.744 290.744 30.816 288.44C34.08 286.136 37.536 285.56 41.184 286.712C55.584 291.128 67.968 293.336 78.336 293.336C108.864 293.336 124.128 279.512 124.128 251.864C124.128 229.016 113.088 217.592 91.008 217.592C85.248 217.592 79.776 218.648 74.592 220.76C60.576 226.52 50.688 229.4 44.928 229.4H42.912C38.496 229.4 34.752 227.768 31.68 224.504C28.608 221.24 27.168 217.4 27.36 212.984L31.68 129.176C32.064 124.568 33.792 120.728 36.864 117.656C40.128 114.392 44.064 112.76 48.672 112.76H138.528C142.944 112.76 146.688 114.392 149.76 117.656C153.024 120.92 154.656 124.76 154.656 129.176C154.656 133.592 153.024 137.432 149.76 140.696C146.688 143.768 142.944 145.304 138.528 145.304H71.424C69.696 145.304 68.832 146.168 68.832 147.896L66.528 193.688C66.528 193.88 66.624 193.976 66.816 193.976H67.104L67.392 193.688C76.992 189.08 87.36 186.776 98.496 186.776C119.232 186.776 135.264 192.44 146.592 203.768C158.112 215.096 163.872 231.128 163.872 251.864C163.872 301.208 135.744 325.88 79.488 325.88C66.624 325.88 54.144 324.44 42.048 321.56ZM306.331 158.552C299.803 147.032 289.819 141.272 276.379 141.272C262.939 141.272 252.955 147.032 246.427 158.552C239.899 170.072 236.635 189.848 236.635 217.88C236.635 245.912 239.899 265.688 246.427 277.208C252.955 288.728 262.939 294.488 276.379 294.488C289.819 294.488 299.803 288.728 306.331 277.208C312.859 265.688 316.123 245.912 316.123 217.88C316.123 189.848 312.859 170.072 306.331 158.552ZM336.859 300.248C323.611 317.336 303.451 325.88 276.379 325.88C249.307 325.88 229.051 317.336 215.611 300.248C202.363 283.16 195.739 255.704 195.739 217.88C195.739 180.056 202.363 152.6 215.611 135.512C229.051 118.424 249.307 109.88 276.379 109.88C303.451 109.88 323.611 118.424 336.859 135.512C350.299 152.6 357.019 180.056 357.019 217.88C357.019 255.704 350.299 283.16 336.859 300.248Z" fill="white"/>
<path d="M42.048 321.56L39.6226 331.261L39.6771 331.275L39.7318 331.288L42.048 321.56ZM30.528 314.072L22.3907 319.884L22.5491 320.106L22.7193 320.319L30.528 314.072ZM30.816 288.44L25.0492 280.27L24.9314 280.353L24.816 280.44L30.816 288.44ZM41.184 286.712L38.1727 296.248L38.2123 296.26L38.2521 296.273L41.184 286.712ZM74.592 220.76L70.819 211.499L70.8049 211.505L70.7909 211.511L74.592 220.76ZM31.68 224.504L24.398 231.358L24.398 231.358L31.68 224.504ZM27.36 212.984L17.3733 212.469L17.3712 212.509L17.3694 212.55L27.36 212.984ZM31.68 129.176L21.7145 128.346L21.7014 128.503L21.6933 128.661L31.68 129.176ZM36.864 117.656L29.7929 110.585L29.7929 110.585L36.864 117.656ZM149.76 117.656L142.478 124.51L142.582 124.62L142.689 124.727L149.76 117.656ZM149.76 140.696L156.831 147.767L156.831 147.767L149.76 140.696ZM68.832 147.896L78.8194 148.398L78.832 148.147V147.896H68.832ZM66.528 193.688L56.5406 193.185L56.528 193.437V193.688H66.528ZM67.104 193.976V203.976H71.2462L74.1751 201.047L67.104 193.976ZM67.392 193.688L63.0647 184.673L61.527 185.411L60.3209 186.617L67.392 193.688ZM146.592 203.768L139.521 210.839L139.551 210.869L139.581 210.898L146.592 203.768ZM44.4734 311.859C42.0689 311.257 40.0928 310.02 38.3367 307.825L22.7193 320.319C27.1072 325.804 32.8111 329.559 39.6226 331.261L44.4734 311.859ZM38.6653 308.26C37.0065 305.937 36.208 303.461 36.208 300.536H16.208C16.208 307.595 18.2895 314.143 22.3907 319.884L38.6653 308.26ZM36.208 300.536V297.656H16.208V300.536H36.208ZM36.208 297.656C36.208 297.365 36.2369 297.184 36.2579 297.089C36.278 296.999 36.297 296.959 36.3043 296.944C36.3115 296.93 36.3322 296.89 36.3926 296.82C36.4556 296.746 36.5829 296.615 36.816 296.44L24.816 280.44C19.2259 284.633 16.208 290.668 16.208 297.656H36.208ZM36.5828 296.61C37.1585 296.203 37.4518 296.152 37.5 296.144C37.5327 296.138 37.712 296.102 38.1727 296.248L44.1953 277.176C37.4175 275.036 30.733 276.258 25.0492 280.27L36.5828 296.61ZM38.2521 296.273C53.2128 300.86 66.6358 303.336 78.336 303.336V283.336C69.3002 283.336 57.9552 281.396 44.1159 277.151L38.2521 296.273ZM78.336 303.336C94.91 303.336 109.207 299.605 119.393 290.38C129.767 280.985 134.128 267.499 134.128 251.864H114.128C114.128 263.877 110.857 271.127 105.967 275.556C100.889 280.155 92.29 283.336 78.336 283.336V303.336ZM134.128 251.864C134.128 238.983 131.02 227.469 123.039 219.211C114.996 210.889 103.678 207.592 91.008 207.592V227.592C100.418 227.592 105.66 230.007 108.657 233.109C111.716 236.275 114.128 241.897 114.128 251.864H134.128ZM91.008 207.592C83.9927 207.592 77.236 208.885 70.819 211.499L78.365 230.021C82.316 228.411 86.5033 227.592 91.008 227.592V207.592ZM70.7909 211.511C63.9738 214.312 58.3528 216.333 53.8676 217.639C49.2376 218.988 46.3957 219.4 44.928 219.4V239.4C49.2203 239.4 54.2024 238.372 59.4604 236.841C64.8632 235.267 71.1942 232.968 78.3931 230.009L70.7909 211.511ZM44.928 219.4H42.912V239.4H44.928V219.4ZM42.912 219.4C41.2999 219.4 40.1764 218.941 38.962 217.65L24.398 231.358C29.3276 236.595 35.6921 239.4 42.912 239.4V219.4ZM38.962 217.65C37.7097 216.32 37.2776 215.097 37.3506 213.418L17.3694 212.55C17.0584 219.703 19.5063 226.16 24.398 231.358L38.962 217.65ZM37.3467 213.499L41.6667 129.691L21.6933 128.661L17.3733 212.469L37.3467 213.499ZM41.6455 130.006C41.8467 127.591 42.6484 126.014 43.9351 124.727L29.7929 110.585C24.9356 115.442 22.2813 121.545 21.7145 128.346L41.6455 130.006ZM43.9351 124.727C45.3274 123.335 46.7213 122.76 48.672 122.76V102.76C41.4067 102.76 34.9286 105.449 29.7929 110.585L43.9351 124.727ZM48.672 122.76H138.528V102.76H48.672V122.76ZM138.528 122.76C140.14 122.76 141.264 123.219 142.478 124.51L157.042 110.802C152.112 105.565 145.748 102.76 138.528 102.76V122.76ZM142.689 124.727C144.172 126.21 144.656 127.543 144.656 129.176H164.656C164.656 121.977 161.876 115.63 156.831 110.585L142.689 124.727ZM144.656 129.176C144.656 130.809 144.172 132.142 142.689 133.625L156.831 147.767C161.876 142.722 164.656 136.375 164.656 129.176H144.656ZM142.689 133.625C141.527 134.787 140.341 135.304 138.528 135.304V155.304C145.547 155.304 151.849 152.749 156.831 147.767L142.689 133.625ZM138.528 135.304H71.424V155.304H138.528V135.304ZM71.424 135.304C69.0186 135.304 65.3777 135.912 62.4089 138.881C59.4401 141.85 58.832 145.491 58.832 147.896H78.832C78.832 148.573 78.6559 150.918 76.5511 153.023C74.4463 155.128 72.1014 155.304 71.424 155.304V135.304ZM58.8446 147.393L56.5406 193.185L76.5154 194.191L78.8194 148.398L58.8446 147.393ZM56.528 193.688C56.528 195.325 56.9441 198.39 59.5289 200.975C62.1137 203.56 65.1785 203.976 66.816 203.976V183.976C68.2615 183.976 71.1823 184.344 73.6711 186.833C76.1599 189.322 76.528 192.243 76.528 193.688H56.528ZM66.816 203.976H67.104V183.976H66.816V203.976ZM74.1751 201.047L74.4631 200.759L60.3209 186.617L60.0329 186.905L74.1751 201.047ZM71.7193 202.703C79.9068 198.773 88.7876 196.776 98.496 196.776V176.776C85.9324 176.776 74.0772 179.387 63.0647 184.673L71.7193 202.703ZM98.496 196.776C117.395 196.776 130.575 201.893 139.521 210.839L153.663 196.697C139.953 182.987 121.069 176.776 98.496 176.776V196.776ZM139.581 210.898C148.686 219.852 153.872 233.012 153.872 251.864H173.872C173.872 229.244 167.538 210.34 153.603 196.638L139.581 210.898ZM153.872 251.864C153.872 274.629 147.444 289.98 136.182 299.858C124.669 309.956 106.373 315.88 79.488 315.88V335.88C108.859 335.88 132.755 329.468 149.37 314.894C166.236 300.1 173.872 278.443 173.872 251.864H153.872ZM79.488 315.88C67.377 315.88 55.6756 314.525 44.3642 311.832L39.7318 331.288C52.6124 334.355 65.871 335.88 79.488 335.88V315.88ZM336.859 300.248L328.999 294.066L328.977 294.093L328.956 294.121L336.859 300.248ZM215.611 300.248L207.708 306.375L207.729 306.403L207.751 306.43L215.611 300.248ZM215.611 135.512L207.751 129.33L207.729 129.357L207.708 129.385L215.611 135.512ZM336.859 135.512L328.956 141.639L328.977 141.667L328.999 141.694L336.859 135.512ZM315.031 153.622C306.694 138.91 293.353 131.272 276.379 131.272V151.272C286.285 151.272 292.911 155.154 297.631 163.482L315.031 153.622ZM276.379 131.272C259.405 131.272 246.063 138.91 237.727 153.622L255.127 163.482C259.846 155.154 266.473 151.272 276.379 151.272V131.272ZM237.727 153.622C229.821 167.572 226.635 189.649 226.635 217.88H246.635C246.635 190.047 249.976 172.572 255.127 163.482L237.727 153.622ZM226.635 217.88C226.635 246.111 229.821 268.188 237.727 282.138L255.127 272.278C249.976 263.188 246.635 245.713 246.635 217.88H226.635ZM237.727 282.138C246.063 296.85 259.405 304.488 276.379 304.488V284.488C266.473 284.488 259.846 280.606 255.127 272.278L237.727 282.138ZM276.379 304.488C293.353 304.488 306.694 296.85 315.031 282.138L297.631 272.278C292.911 280.606 286.285 284.488 276.379 284.488V304.488ZM315.031 282.138C322.936 268.188 326.123 246.111 326.123 217.88H306.123C306.123 245.713 302.781 263.188 297.631 272.278L315.031 282.138ZM326.123 217.88C326.123 189.649 322.936 167.572 315.031 153.622L297.631 163.482C302.781 172.572 306.123 190.047 306.123 217.88H326.123ZM328.956 294.121C318.072 308.159 301.218 315.88 276.379 315.88V335.88C305.683 335.88 329.149 326.513 344.762 306.375L328.956 294.121ZM276.379 315.88C251.545 315.88 234.556 308.16 223.471 294.066L207.751 306.43C223.546 326.512 247.068 335.88 276.379 335.88V315.88ZM223.514 294.121C212.318 279.68 205.739 254.972 205.739 217.88H185.739C185.739 256.436 192.408 286.64 207.708 306.375L223.514 294.121ZM205.739 217.88C205.739 180.788 212.318 156.08 223.514 141.639L207.708 129.385C192.408 149.12 185.739 179.324 185.739 217.88H205.739ZM223.471 141.694C234.556 127.6 251.545 119.88 276.379 119.88V99.88C247.068 99.88 223.546 109.248 207.751 129.33L223.471 141.694ZM276.379 119.88C301.218 119.88 318.072 127.601 328.956 141.639L344.762 129.385C329.149 109.247 305.683 99.88 276.379 99.88V119.88ZM328.999 141.694C340.35 156.127 347.019 180.808 347.019 217.88H367.019C367.019 179.304 360.247 149.073 344.719 129.33L328.999 141.694ZM347.019 217.88C347.019 254.952 340.35 279.633 328.999 294.066L344.719 306.43C360.247 286.687 367.019 256.456 367.019 217.88H347.019Z" fill="white" mask="url(#path-1-outside-1_202_18)"/>
<path fill-rule="evenodd" clip-rule="evenodd" d="M502.787 85.3237C447.319 91.2723 402.092 134.026 392.167 189.894C384.208 234.702 398.408 278.526 430.888 309.39C470.288 346.83 529.775 353.757 576.146 326.305C609.952 306.291 632.605 271.911 638.264 232.027C638.683 229.078 639.025 225.63 639.025 224.364C639.025 223.098 639.244 221.922 639.513 221.75C639.805 221.564 640 218.204 640 213.367C640 208.115 639.83 205.405 639.513 205.607C639.214 205.798 639.025 205.004 639.025 203.558C639.025 200.608 637.813 191.992 636.511 185.681C632.867 168.027 622.791 146.587 611.498 132.46C591.08 106.918 564.121 91.1271 532.277 86.0572C526.15 85.0816 509.017 84.6553 502.787 85.3237ZM539.249 153.406C537.19 154.49 536.136 155.912 532.778 162.13C531.71 164.109 530.969 164.973 530.5 164.787C530.118 164.635 527.784 164.365 525.313 164.185C515.234 163.454 504.624 166.435 495.719 172.503C492.059 174.997 485.814 181.24 483.221 184.999C480.228 189.338 476.933 196.779 475.645 202.107C474.092 208.526 474.092 219.316 475.643 225.786C477.007 231.474 481.202 240.414 484.448 244.552L486.902 247.679L482.783 255.333C480.518 259.543 478.453 263.811 478.194 264.817C476.916 269.78 480.421 274.858 485.472 275.361C487.269 275.539 488.396 275.327 490.049 274.5C492.436 273.303 493.186 272.25 497.876 263.498L500.645 258.33L502.447 259.278C505.564 260.916 511.872 262.733 516.679 263.376C528.577 264.967 541.238 261.477 551.098 253.89C555.966 250.144 558.4 247.342 559.089 244.69C560.382 239.721 557.258 234.826 552.172 233.85C549.573 233.351 547.278 234.329 543.908 237.372C537.696 242.978 531.769 245.593 524.234 246.05C519.5 246.338 514.446 245.509 510.858 243.855L508.867 242.938L523.766 215.192C531.961 199.932 538.831 187.274 539.034 187.063C539.237 186.853 541.107 188.146 543.19 189.938C545.272 191.73 547.741 193.457 548.676 193.776C551.901 194.878 556.216 193.169 558.034 190.07C561.164 184.733 559.148 180.053 551.103 173.981C549.194 172.539 547.571 171.323 547.497 171.277C547.423 171.231 548.131 169.788 549.069 168.069C551.831 163.013 552.172 160.019 550.382 156.557C548.494 152.907 543.099 151.38 539.249 153.406ZM515.704 182.43C505.672 184.66 496.711 192.924 493.034 203.337C491.233 208.439 490.826 215.864 492.059 221.117C492.881 224.615 494.958 229.839 495.721 230.327C496.034 230.527 522.041 182.698 522.041 181.922C522.041 181.451 519.022 181.692 515.704 182.43ZM390.145 213.931C390.145 218.509 390.219 220.382 390.309 218.093C390.399 215.804 390.399 212.058 390.309 209.769C390.219 207.481 390.145 209.353 390.145 213.931Z" fill="#FFC107"/>
</svg>
